<?xml version="1.0" standalone="no"?>
<!DOCTYPE svg PUBLIC "-//W3C//DTD SVG 20010904//EN"
 "http://www.w3.org/TR/2001/REC-SVG-20010904/DTD/svg10.dtd">
<svg version="1.0" xmlns="http://www.w3.org/2000/svg"
 width="300.000000pt" height="300.000000pt" viewBox="0 0 500.000000 500.000000"
 preserveAspectRatio="xMidYMid meet">

<g fill="none" transform="translate(0.000000,500.000000) scale(0.100000,-0.100000)" stroke="none">
<path d="M1845 3549 c-2 -8 -6 -58 -7 -112 l-3 -97 -142 -4 c-97 -2 -147 -7
-157 -15 -12 -10 -16 -33 -16 -90 l0 -76 -110 -27 c-61 -14 -122 -33 -135 -42
l-25 -16 0 -704 c0 -616 2 -705 15 -716 12 -10 27 -9 81 9 124 41 235 54 414
48 183 -5 288 -26 434 -87 78 -33 239 -132 265 -163 17 -22 64 -22 82 -1 41
49 233 155 360 198 219 74 537 76 754 5 53 -18 68 -19 80 -9 13 11 15 100 15
716 l0 704 -22 14 c-21 13 -113 39 -223 63 l-40 9 -5 84 -5 85 -45 7 c-25 4
-90 7 -145 6 l-100 -1 -5 109 -5 109 -85 -1 c-175 -2 -375 -84 -524 -215 l-46
-41 -68 55 c-95 77 -181 124 -298 163 -118 40 -279 58 -289 33z m176 -69 c128
-25 271 -98 372 -190 l67 -62 0 -634 c0 -349 -2 -634 -5 -634 -3 0 -29 18 -58
39 -130 98 -291 165 -425 177 l-72 7 0 659 0 659 38 -6 c20 -4 58 -10 83 -15z
m1059 -635 l0 -654 -32 -5 c-18 -3 -55 -8 -82 -11 -113 -15 -275 -89 -385
-175 l-51 -40 0 638 0 638 38 35 c120 113 287 197 437 218 33 5 63 9 68 10 4
0 7 -294 7 -654z m-1250 -144 c0 -328 4 -572 9 -575 5 -3 49 -10 98 -15 173
-18 339 -92 462 -207 l61 -56 0 -59 c0 -32 -2 -59 -6 -59 -3 0 -35 20 -72 44
-88 57 -135 80 -234 116 -130 47 -211 60 -390 67 l-168 6 0 653 0 654 120 0
120 0 0 -569z m1550 -86 l0 -655 -117 0 c-253 0 -502 -73 -676 -196 -26 -19
-49 -34 -52 -34 -3 0 -5 29 -5 64 l0 64 58 52 c124 112 285 182 459 200 47 5
91 14 97 20 8 8 12 182 13 573 2 309 3 563 3 565 0 1 50 2 110 2 l110 0 0
-655z m-1860 -119 c0 -385 4 -597 10 -601 5 -3 90 -7 187 -9 186 -3 255 -13
388 -59 179 -62 355 -180 355 -239 0 -15 -3 -28 -7 -28 -4 0 -34 18 -67 40
-203 131 -458 197 -721 187 -81 -4 -180 -15 -235 -26 -52 -12 -98 -21 -102
-21 -5 0 -8 292 -8 650 l0 649 53 16 c48 13 122 32 140 34 4 1 7 -266 7 -593z
m2092 558 l58 -17 0 -654 c0 -620 -1 -655 -17 -648 -50 20 -212 46 -320 52
-272 14 -577 -68 -759 -204 -40 -30 -44 -29 -44 11 0 30 7 40 63 81 113 85
297 165 452 196 33 6 135 13 226 14 91 1 171 5 177 9 9 5 12 158 12 598 l0
591 47 -7 c26 -3 74 -14 105 -22z"/>
</g>
</svg>
